<svg width="51" height="52" viewBox="0 0 51 52" fill="none" xmlns="http://www.w3.org/2000/svg">
<g id="dotnet" clip-path="url(#clip0_1_469)">
<path id="Vector" d="M25.4419 51.1081C39.4518 51.1081 50.8091 39.7508 50.8091 25.7408C50.8091 11.7308 39.4518 0.373535 25.4419 0.373535C11.4319 0.373535 0.074585 11.7308 0.074585 25.7408C0.074585 39.7508 11.4319 51.1081 25.4419 51.1081Z" fill="#5C2D91"/>
<g id="Group">
<path id="Vector_2" opacity="0.1" d="M7.85913 7.5083C5.28036 9.80627 3.19805 12.6067 1.73984 15.7379C0.281634 18.8691 -0.521752 22.2651 -0.621071 25.7177C-0.720391 29.1704 -0.113552 32.6069 1.16225 35.8168C2.43805 39.0266 4.35593 41.9421 6.79834 44.3845C9.24075 46.8269 12.1562 48.7448 15.3661 50.0206C18.5759 51.2964 22.0125 51.9032 25.4651 51.8039C28.9178 51.7046 32.3138 50.9012 35.445 49.443C38.5762 47.9848 41.3766 45.9025 43.6745 43.3237L7.85913 7.5083Z" fill="white"/>
<path id="Vector_3" d="M5.94072 33.0734C5.79274 33.0758 5.64589 33.0474 5.50945 32.9901C5.373 32.9328 5.24992 32.8478 5.14799 32.7405C5.04326 32.637 4.9605 32.5135 4.90465 32.3773C4.8488 32.241 4.82102 32.095 4.82297 31.9478C4.82191 31.8007 4.8501 31.6549 4.9059 31.5188C4.9617 31.3827 5.04399 31.259 5.14799 31.155C5.24892 31.0459 5.37163 30.9592 5.50818 30.9005C5.64473 30.8418 5.79209 30.8123 5.94072 30.8142C6.08913 30.8138 6.23605 30.8439 6.37239 30.9025C6.50873 30.9611 6.63161 31.0471 6.73344 31.155C6.83924 31.2581 6.92323 31.3814 6.98043 31.5176C7.03763 31.6538 7.06686 31.8001 7.06639 31.9478C7.06777 32.0956 7.03896 32.2422 6.98171 32.3785C6.92446 32.5148 6.83998 32.638 6.73344 32.7405C6.63065 32.8466 6.50741 32.9309 6.37116 32.9881C6.23492 33.0453 6.08849 33.0744 5.94072 33.0734ZM21.6922 32.8752H19.6153L12.1874 21.349C12.0027 21.0648 11.8486 20.7619 11.7276 20.4453H11.6642C11.7348 21.1034 11.7613 21.7655 11.7435 22.4271V32.8752H10.055V18.4238H12.2508L19.4805 29.744C19.7817 30.2143 19.9773 30.5367 20.0671 30.7111H20.1068C20.0231 30.0062 19.9887 29.2963 20.0037 28.5866V18.4238H21.6922V32.8752ZM33.1233 32.8752H25.4418V18.4238H32.7666V19.9538H27.17V24.7577H32.3861V26.2798H27.17V31.2898H33.1313L33.1233 32.8752ZM44.4673 19.9538H40.2658V32.8752H38.5773V19.9538H34.4234V18.4238H44.4673V19.9538Z" fill="white"/>
</g>
</g>
<defs>
<clipPath id="clip0_1_469">
<rect width="50.7345" height="50.7345" fill="white" transform="translate(0.074585 0.373535)"/>
</clipPath>
</defs>
</svg>
