<svg width="60" height="23" viewBox="0 0 60 23" fill="none" xmlns="http://www.w3.org/2000/svg">
<g id="golang-ar21 1" clip-path="url(#clip0_1_476)">
<g id="Group">
<g id="Group_2">
<path id="Vector" d="M5.76687 7.53937C5.6876 7.53937 5.60833 7.46009 5.6876 7.38082L6.24251 6.58809C6.32178 6.50882 6.40105 6.42955 6.5596 6.42955H16.548C16.6272 6.42955 16.7065 6.50882 16.6272 6.58809L16.1516 7.30155C16.0723 7.38082 15.9931 7.46009 15.8345 7.46009L5.76687 7.53937ZM1.56542 10.0761C1.48614 10.0761 1.40687 9.99682 1.48614 9.91755L2.04105 9.12482C2.12033 9.04555 2.1996 8.96628 2.35814 8.96628H15.1211C15.2003 8.96628 15.2796 9.04555 15.2796 9.12482L15.0418 9.91755C15.0418 9.99682 14.8832 10.0761 14.804 10.0761H1.56542ZM8.3036 12.6921C8.22433 12.6921 8.14505 12.6128 8.22433 12.5335L8.62069 11.8201C8.69996 11.7408 8.77923 11.6615 8.93778 11.6615H14.4869C14.5661 11.6615 14.6454 11.7408 14.6454 11.8201L14.5661 12.4543C14.5661 12.5335 14.4869 12.6128 14.4076 12.6128L8.3036 12.6921ZM37.3174 6.98446L32.6403 8.17355C32.244 8.25282 32.1647 8.33209 31.8476 7.85646C31.4512 7.38082 31.1341 7.06373 30.5 6.82591C28.756 5.95391 27.012 6.19173 25.4265 7.22227C23.524 8.41137 22.5727 10.2346 22.5727 12.5335C22.5727 14.7532 24.1581 16.5765 26.3778 16.8935C28.2803 17.1314 29.8658 16.4972 31.1341 15.0703C31.372 14.7532 31.6098 14.4361 31.9269 14.0397H26.5363C25.9814 14.0397 25.8229 13.6434 25.9814 13.1677C26.3778 12.2957 27.012 10.8688 27.4083 10.1554C27.4876 9.99682 27.7254 9.67973 28.1218 9.67973H38.2687C38.1894 10.4725 38.1894 11.1859 38.1101 11.9786C37.793 13.9605 37.0796 15.863 35.8112 17.4485C33.8294 20.0645 31.2134 21.7292 27.884 22.2048C25.1094 22.6012 22.5727 22.0463 20.3531 20.3815C18.292 18.7961 17.1029 16.735 16.7858 14.1983C16.3894 11.1859 17.3407 8.41137 19.164 6.03318C21.1458 3.41718 23.7618 1.75246 27.012 1.19755C29.628 0.721912 32.1647 1.039 34.3843 2.54518C35.8905 3.49646 36.9211 4.84409 37.6345 6.50882C37.7138 6.82591 37.6345 6.90518 37.3174 6.98446Z" fill="#00ACD7"/>
<path id="Vector_2" d="M46.5131 22.4427C43.9763 22.3635 41.6774 21.65 39.6956 19.9853C38.0309 18.5584 37.0003 16.7351 36.6832 14.5947C36.2076 11.4238 37.0796 8.64929 38.9822 6.19183C41.0432 3.49656 43.5007 2.14892 46.8302 1.51474C49.684 1.0391 52.3792 1.27692 54.7574 2.94165C56.9771 4.44783 58.3247 6.50892 58.7211 9.2042C59.1967 13.0093 58.0869 16.0217 55.5502 18.6377C53.7269 20.5402 51.428 21.65 48.8912 22.2049C48.0192 22.3635 47.2265 22.3635 46.5131 22.4427ZM53.172 11.186C53.172 10.7896 53.172 10.5518 53.0927 10.2347C52.6171 7.4602 50.0803 5.87474 47.3851 6.50892C44.7691 7.06383 43.1043 8.72856 42.4702 11.3446C41.9945 13.4849 43.0251 15.7046 45.0069 16.6558C46.5131 17.29 48.0985 17.2107 49.5254 16.4973C51.8243 15.3875 53.0134 13.5642 53.172 11.186Z" fill="#00ACD7"/>
</g>
</g>
</g>
<defs>
<clipPath id="clip0_1_476">
<rect width="58.6618" height="22.1964" fill="white" transform="translate(0.772705 0.642578)"/>
</clipPath>
</defs>
</svg>
