<svg width="53" height="52" viewBox="0 0 53 52" fill="none" xmlns="http://www.w3.org/2000/svg">
<g id="javascript">
<g id="Group 1707482803">
<path id="Vector" d="M4.04773 3.75146H49.1341V48.1442H4.04773V3.75146Z" fill="#F5DE19"/>
<path id="Vector_2" d="M30.3416 30.1956C30.7258 30.9639 31.3226 31.6097 32.0634 32.0585C32.8041 32.5073 33.6585 32.7409 34.5282 32.7324C36.2834 32.7324 37.4057 31.8683 37.4057 30.6713C37.4057 29.2444 36.2528 28.7338 34.3205 27.9015L33.261 27.4544C30.2016 26.1717 28.1727 24.5657 28.1727 21.1696C28.1727 18.0415 30.588 15.6586 34.3769 15.6586C35.6034 15.5714 36.8288 15.8417 37.9004 16.4357C38.9719 17.0298 39.8421 17.9213 40.4023 18.9991L37.0901 21.084C36.8744 20.5496 36.4987 20.0924 36.013 19.773C35.5273 19.4536 34.9545 19.2871 34.3704 19.2956C34.1156 19.2705 33.8583 19.2979 33.6149 19.3761C33.3714 19.4544 33.1472 19.5816 32.9565 19.7499C32.7658 19.9181 32.6127 20.1237 32.5071 20.3534C32.4015 20.5831 32.3457 20.8319 32.3432 21.084C32.3432 22.3349 33.1306 22.8423 34.9485 23.6207L36.008 24.0678C39.6085 25.5883 41.6438 27.1373 41.6438 30.6205C41.6438 34.3765 38.6472 36.4344 34.6232 36.4344C33.0554 36.5328 31.4921 36.1823 30.122 35.4252C28.752 34.6682 27.6337 33.5369 26.9022 32.1679L30.3416 30.1956ZM15.3746 30.5571C16.0396 31.7192 16.6451 32.7022 18.1007 32.7022C19.4919 32.7022 20.3711 32.1663 20.3711 30.0815V15.8964H24.6076V30.137C24.6076 34.4557 22.0313 36.4217 18.281 36.4217C16.9554 36.4931 15.6389 36.1678 14.5046 35.4886C13.3702 34.8095 12.4711 33.8083 11.9255 32.6166L15.3746 30.5571Z" fill="black"/>
</g>
</g>
</svg>
