<svg width="57" height="52" viewBox="0 0 57 52" fill="none" xmlns="http://www.w3.org/2000/svg">
<g id="reactjs">
<g id="Group">
<path id="Vector" d="M28.5327 29.6631C30.927 29.6631 32.868 27.8885 32.868 25.6995C32.868 23.5104 30.927 21.7358 28.5327 21.7358C26.1385 21.7358 24.1975 23.5104 24.1975 25.6995C24.1975 27.8885 26.1385 29.6631 28.5327 29.6631Z" fill="#00D8FF"/>
<path id="Vector_2" d="M28.5327 34.7874C23.322 34.9026 18.1244 34.2605 13.134 32.8849C10.8287 32.2167 8.67867 31.1642 6.79244 29.7805C6.07267 29.3079 5.47327 28.6984 5.03536 27.994C4.59745 27.2895 4.3314 26.5069 4.25546 25.6996C4.25546 23.0788 7.40457 20.5104 12.6797 18.8298C17.8035 17.3407 23.1569 16.619 28.5327 16.6926C33.8368 16.6249 39.1186 17.3335 44.1777 18.7918C46.3978 19.4389 48.475 20.4405 50.3129 21.7502C51.0204 22.2009 51.6108 22.7883 52.0423 23.4708C52.4739 24.1533 52.7359 24.9142 52.81 25.6996C52.81 28.4234 49.2898 31.1837 43.6193 32.8991C38.7256 34.2299 33.6376 34.8667 28.5327 34.7874ZM28.5327 18.5888C23.3896 18.526 18.2683 19.2121 13.3612 20.6214C8.50572 22.1704 6.32944 24.2885 6.32944 25.6948C6.32944 27.1661 8.66872 29.4793 13.8051 31.0854C18.5792 32.3947 23.55 33.0042 28.5327 32.8912C33.4166 32.9711 38.2851 32.3669 42.969 31.0996C48.3014 29.4841 50.7291 27.1677 50.7291 25.6996C50.6416 25.1958 50.4408 24.714 50.1393 24.2848C49.8379 23.8555 49.4423 23.4881 48.9777 23.2057C47.3333 22.0438 45.4778 21.1561 43.4962 20.5833C38.6564 19.1941 33.6049 18.5208 28.5327 18.5888Z" fill="#00D8FF"/>
<path id="Vector_3" d="M18.6831 45.4684C17.8742 45.4854 17.0747 45.306 16.3664 44.9484C13.8831 43.6388 13.023 39.8623 14.0652 34.8443C15.2143 30.0421 17.2053 25.4414 19.9611 21.2205C22.5462 16.9859 25.8556 13.1567 29.7639 9.87814C31.4862 8.44284 33.4729 7.29789 35.6321 6.49637C36.4131 6.16174 37.265 5.98828 38.1275 5.98828C38.9899 5.98828 39.8419 6.16174 40.6228 6.49637C43.2049 7.85669 44.0598 12.0233 42.8546 17.371C41.67 21.9126 39.7307 26.2613 37.1044 30.2655C34.6103 34.4501 31.405 38.2459 27.6085 41.5111C25.8237 43.0027 23.7524 44.1794 21.4993 44.9817C20.5972 45.2878 19.6451 45.4524 18.6831 45.4684ZM21.7576 22.1622C19.1289 26.2041 17.2207 30.6027 16.1045 35.1931C15.1456 39.8147 16.0664 42.594 17.4051 43.3011C18.7924 44.0352 22.16 43.3392 26.2489 40.0731C29.8732 36.9449 32.9325 33.3115 35.313 29.3079C37.8291 25.4798 39.6894 21.3222 40.8292 16.9794C41.9633 11.9456 40.9835 8.86345 39.5928 8.13097C39.0715 7.94837 38.5145 7.86663 37.9569 7.89092C37.3994 7.91521 36.8534 8.045 36.3535 8.27208C34.4316 8.99718 32.6646 10.0266 31.1339 11.313C27.3998 14.4534 24.2386 18.1192 21.7698 22.1718L21.7576 22.1622Z" fill="#00D8FF"/>
<path id="Vector_4" d="M38.3772 45.4893C36.0275 45.4893 33.0431 44.1892 29.9356 41.746C25.9588 38.4376 22.5934 34.5629 19.9698 30.2721C17.2485 26.1092 15.2733 21.5751 14.119 16.8417C13.6183 14.7592 13.5256 12.612 13.845 10.4999C13.9188 9.71634 14.1798 8.95717 14.6094 8.27589C15.0391 7.5946 15.627 7.00779 16.3317 6.55684C18.9103 5.19176 23.2854 6.59489 27.7506 10.2192C31.4626 13.4253 34.6149 17.1329 37.0974 21.2128C39.817 25.2784 41.8129 29.7132 43.0106 34.3514C43.5328 36.5104 43.6134 38.739 43.2482 40.9247C43.1613 41.7308 42.8848 42.5101 42.4377 43.2093C41.9905 43.9085 41.3832 44.5111 40.6575 44.9756C39.9607 45.3287 39.1736 45.506 38.3772 45.4893ZM21.7646 29.3176C24.2815 33.4183 27.4962 37.1266 31.2882 40.3032C35.1882 43.3711 38.2818 44.0306 39.6118 43.3156C40.9991 42.5784 42.0222 39.5692 40.9679 34.7002C39.8128 30.272 37.8983 26.0388 35.2957 22.1577C32.9266 18.2529 29.9178 14.7027 26.3738 11.6303C22.1703 8.21839 18.7611 7.45579 17.3721 8.19144C16.9392 8.5131 16.5839 8.91334 16.3287 9.36688C16.0735 9.82042 15.924 10.3174 15.8895 10.8265C15.6138 12.7101 15.7036 14.6235 16.1548 16.4786C17.2651 21.0053 19.1595 25.3407 21.7663 29.3208L21.7646 29.3176Z" fill="#00D8FF"/>
</g>
</g>
</svg>
