<svg width="164" height="183" viewBox="0 0 164 183" fill="none" xmlns="http://www.w3.org/2000/svg">
<path id="Arrow 1" d="M2 179.5C1.17157 179.5 0.5 180.172 0.5 181C0.5 181.828 1.17157 182.5 2 182.5V179.5ZM88.7516 140.523L87.2517 140.541L88.7516 140.523ZM87.6655 49.4771L89.1654 49.4592L87.6655 49.4771ZM164 9L149 0.339746V17.6603L164 9ZM6.67544 182.5C7.50387 182.5 8.17544 181.828 8.17544 181C8.17544 180.172 7.50387 179.5 6.67544 179.5V182.5ZM20.7018 179.5C19.8734 179.5 19.2018 180.172 19.2018 181C19.2018 181.828 19.8734 182.5 20.7018 182.5V179.5ZM30.0527 182.5C30.8811 182.5 31.5527 181.828 31.5527 181C31.5527 180.172 30.8811 179.5 30.0527 179.5V182.5ZM44.079 179.5C43.2506 179.5 42.579 180.172 42.579 181C42.579 181.828 43.2506 182.5 44.079 182.5V179.5ZM53.1246 182.273C53.9485 182.186 54.5466 181.449 54.4603 180.625C54.3741 179.801 53.6363 179.203 52.8123 179.289L53.1246 182.273ZM64.5294 176.131C63.7739 176.471 63.4369 177.359 63.7767 178.115C64.1165 178.87 65.0045 179.207 65.76 178.867L64.5294 176.131ZM73.3099 174.459C73.9773 173.969 74.1206 173.03 73.6299 172.362C73.1393 171.695 72.2004 171.552 71.5329 172.042L73.3099 174.459ZM80.0662 163.407C79.5835 164.08 79.738 165.017 80.4112 165.5C81.0845 165.982 82.0216 165.828 82.5043 165.155L80.0662 163.407ZM86.8218 157.553C87.1526 156.793 86.805 155.909 86.0455 155.578C85.286 155.248 84.4021 155.595 84.0713 156.355L86.8218 157.553ZM87.0891 144.601C87.0127 145.426 87.6194 146.156 88.4443 146.233C89.2692 146.309 89.9999 145.702 90.0763 144.878L87.0891 144.601ZM90.2081 136.863C90.1982 136.035 89.5186 135.371 88.6903 135.381C87.8619 135.391 87.1984 136.071 87.2083 136.899L90.2081 136.863ZM87.0779 125.973C87.0878 126.802 87.7674 127.465 88.5957 127.455C89.4241 127.446 90.0876 126.766 90.0777 125.938L87.0779 125.973ZM89.9908 118.654C89.981 117.826 89.3014 117.162 88.4731 117.172C87.6447 117.182 86.9812 117.861 86.9911 118.69L89.9908 118.654ZM86.8607 107.764C86.8706 108.593 87.5501 109.256 88.3785 109.246C89.2069 109.236 89.8704 108.557 89.8605 107.729L86.8607 107.764ZM89.7736 100.445C89.7638 99.6165 89.0842 98.953 88.2559 98.9629C87.4275 98.9727 86.764 99.6523 86.7738 100.481L89.7736 100.445ZM86.6435 89.5551C86.6534 90.3835 87.3329 91.047 88.1613 91.0371C88.9897 91.0273 89.6532 90.3477 89.6433 89.5194L86.6435 89.5551ZM89.5564 82.2357C89.5465 81.4073 88.867 80.7438 88.0386 80.7537C87.2103 80.7636 86.5468 81.4431 86.5566 82.2715L89.5564 82.2357ZM86.4263 71.346C86.4362 72.1744 87.1157 72.8379 87.9441 72.828C88.7725 72.8181 89.436 72.1386 89.4261 71.3102L86.4263 71.346ZM89.3392 64.0266C89.3293 63.1982 88.6498 62.5347 87.8214 62.5446C86.993 62.5544 86.3295 63.234 86.3394 64.0623L89.3392 64.0266ZM86.2091 53.1368C86.219 53.9652 86.8985 54.6287 87.7269 54.6188C88.5552 54.609 89.2188 53.9294 89.2089 53.1011L86.2091 53.1368ZM89.3281 45.3991C89.4045 44.5742 88.7977 43.8436 87.9728 43.7672C87.1479 43.6908 86.4173 44.2976 86.3409 45.1224L89.3281 45.3991ZM89.5953 32.4474C89.2645 33.2069 89.6121 34.0907 90.3717 34.4215C91.1312 34.7523 92.015 34.4047 92.3458 33.6452L89.5953 32.4474ZM96.351 26.5934C96.8337 25.9202 96.6792 24.9831 96.0059 24.5004C95.3326 24.0177 94.3955 24.1722 93.9128 24.8454L96.351 26.5934ZM103.107 15.5407C102.44 16.0314 102.297 16.9702 102.787 17.6377C103.278 18.3052 104.217 18.4485 104.884 17.9578L103.107 15.5407ZM111.888 13.8688C112.643 13.529 112.98 12.641 112.64 11.8855C112.301 11.13 111.413 10.793 110.657 11.1328L111.888 13.8688ZM123.293 7.72737C122.469 7.8136 121.871 8.55143 121.957 9.37536C122.043 10.1993 122.781 10.7973 123.605 10.7111L123.293 7.72737ZM131.296 10.5C132.125 10.5 132.796 9.82843 132.796 9C132.796 8.17157 132.125 7.5 131.296 7.5V10.5ZM142.198 7.5C141.369 7.5 140.698 8.17157 140.698 9C140.698 9.82843 141.369 10.5 142.198 10.5V7.5ZM149.465 10.5C150.294 10.5 150.965 9.82843 150.965 9C150.965 8.17157 150.294 7.5 149.465 7.5V10.5ZM160.366 7.5C159.538 7.5 158.866 8.17157 158.866 9C158.866 9.82843 159.538 10.5 160.366 10.5V7.5ZM2 182.5H6.67544V179.5H2V182.5ZM20.7018 182.5H30.0527V179.5H20.7018V182.5ZM44.079 182.5H48.7544V179.5H44.079V182.5ZM48.7544 182.5C50.2301 182.5 51.6881 182.423 53.1246 182.273L52.8123 179.289C51.4794 179.428 50.1256 179.5 48.7544 179.5V182.5ZM65.76 178.867C68.4405 177.662 70.9691 176.18 73.3099 174.459L71.5329 172.042C69.3608 173.639 67.0151 175.013 64.5294 176.131L65.76 178.867ZM82.5043 165.155C84.1971 162.793 85.6483 160.247 86.8218 157.553L84.0713 156.355C82.9831 158.854 81.637 161.216 80.0662 163.407L82.5043 165.155ZM90.0763 144.878C90.2095 143.439 90.2691 141.981 90.2515 140.505L87.2517 140.541C87.2681 141.912 87.2127 143.266 87.0891 144.601L90.0763 144.878ZM90.2515 140.505L90.2081 136.863L87.2083 136.899L87.2517 140.541L90.2515 140.505ZM90.0777 125.938L89.9908 118.654L86.9911 118.69L87.0779 125.973L90.0777 125.938ZM89.8605 107.729L89.7736 100.445L86.7738 100.481L86.8607 107.764L89.8605 107.729ZM89.6433 89.5194L89.5564 82.2357L86.5566 82.2715L86.6435 89.5551L89.6433 89.5194ZM89.4261 71.3102L89.3392 64.0266L86.3394 64.0623L86.4263 71.346L89.4261 71.3102ZM89.2089 53.1011L89.1654 49.4592L86.1656 49.495L86.2091 53.1368L89.2089 53.1011ZM89.1654 49.4592C89.1491 48.0882 89.2045 46.7336 89.3281 45.3991L86.3409 45.1224C86.2077 46.5606 86.148 48.0195 86.1656 49.495L89.1654 49.4592ZM92.3458 33.6452C93.434 31.1463 94.7802 28.7844 96.351 26.5934L93.9128 24.8454C92.2201 27.2065 90.7689 29.7526 89.5953 32.4474L92.3458 33.6452ZM104.884 17.9578C107.056 16.3609 109.402 14.9867 111.888 13.8688L110.657 11.1328C107.977 12.3384 105.448 13.8199 103.107 15.5407L104.884 17.9578ZM123.605 10.7111C124.938 10.5716 126.292 10.5 127.663 10.5V7.5C126.187 7.5 124.729 7.57703 123.293 7.72737L123.605 10.7111ZM127.663 10.5H131.296V7.5H127.663V10.5ZM142.198 10.5H149.465V7.5H142.198V10.5ZM2 179.5C1.17157 179.5 0.5 180.172 0.5 181C0.5 181.828 1.17157 182.5 2 182.5V179.5ZM88.7516 140.523L87.2517 140.541L88.7516 140.523ZM87.6655 49.4771L89.1654 49.4592L87.6655 49.4771ZM164 9L149 0.339746V17.6603L164 9ZM6.67544 182.5C7.50387 182.5 8.17544 181.828 8.17544 181C8.17544 180.172 7.50387 179.5 6.67544 179.5V182.5ZM20.7018 179.5C19.8734 179.5 19.2018 180.172 19.2018 181C19.2018 181.828 19.8734 182.5 20.7018 182.5V179.5ZM30.0527 182.5C30.8811 182.5 31.5527 181.828 31.5527 181C31.5527 180.172 30.8811 179.5 30.0527 179.5V182.5ZM44.079 179.5C43.2506 179.5 42.579 180.172 42.579 181C42.579 181.828 43.2506 182.5 44.079 182.5V179.5ZM53.1246 182.273C53.9485 182.186 54.5466 181.449 54.4603 180.625C54.3741 179.801 53.6363 179.203 52.8123 179.289L53.1246 182.273ZM64.5294 176.131C63.7739 176.471 63.4369 177.359 63.7767 178.115C64.1165 178.87 65.0045 179.207 65.76 178.867L64.5294 176.131ZM73.3099 174.459C73.9773 173.969 74.1206 173.03 73.6299 172.362C73.1393 171.695 72.2004 171.552 71.5329 172.042L73.3099 174.459ZM80.0662 163.407C79.5835 164.08 79.738 165.017 80.4112 165.5C81.0845 165.982 82.0216 165.828 82.5043 165.155L80.0662 163.407ZM86.8218 157.553C87.1526 156.793 86.805 155.909 86.0455 155.578C85.286 155.248 84.4021 155.595 84.0713 156.355L86.8218 157.553ZM87.0891 144.601C87.0127 145.426 87.6194 146.156 88.4443 146.233C89.2692 146.309 89.9999 145.702 90.0763 144.878L87.0891 144.601ZM90.2081 136.863C90.1982 136.035 89.5186 135.371 88.6903 135.381C87.8619 135.391 87.1984 136.071 87.2083 136.899L90.2081 136.863ZM87.0779 125.973C87.0878 126.802 87.7674 127.465 88.5957 127.455C89.4241 127.446 90.0876 126.766 90.0777 125.938L87.0779 125.973ZM89.9908 118.654C89.981 117.826 89.3014 117.162 88.4731 117.172C87.6447 117.182 86.9812 117.861 86.9911 118.69L89.9908 118.654ZM86.8607 107.764C86.8706 108.593 87.5501 109.256 88.3785 109.246C89.2069 109.236 89.8704 108.557 89.8605 107.729L86.8607 107.764ZM89.7736 100.445C89.7638 99.6165 89.0842 98.953 88.2559 98.9629C87.4275 98.9727 86.764 99.6523 86.7738 100.481L89.7736 100.445ZM86.6435 89.5551C86.6534 90.3835 87.3329 91.047 88.1613 91.0371C88.9897 91.0273 89.6532 90.3477 89.6433 89.5194L86.6435 89.5551ZM89.5564 82.2357C89.5465 81.4073 88.867 80.7438 88.0386 80.7537C87.2103 80.7636 86.5468 81.4431 86.5566 82.2715L89.5564 82.2357ZM86.4263 71.346C86.4362 72.1744 87.1157 72.8379 87.9441 72.828C88.7725 72.8181 89.436 72.1386 89.4261 71.3102L86.4263 71.346ZM89.3392 64.0266C89.3293 63.1982 88.6498 62.5347 87.8214 62.5446C86.993 62.5544 86.3295 63.234 86.3394 64.0623L89.3392 64.0266ZM86.2091 53.1368C86.219 53.9652 86.8985 54.6287 87.7269 54.6188C88.5552 54.609 89.2188 53.9294 89.2089 53.1011L86.2091 53.1368ZM89.3281 45.3991C89.4045 44.5742 88.7977 43.8436 87.9728 43.7672C87.1479 43.6908 86.4173 44.2976 86.3409 45.1224L89.3281 45.3991ZM89.5953 32.4474C89.2645 33.2069 89.6121 34.0907 90.3717 34.4215C91.1312 34.7523 92.015 34.4047 92.3458 33.6452L89.5953 32.4474ZM96.351 26.5934C96.8337 25.9202 96.6792 24.9831 96.0059 24.5004C95.3326 24.0177 94.3955 24.1722 93.9128 24.8454L96.351 26.5934ZM103.107 15.5407C102.44 16.0314 102.297 16.9702 102.787 17.6377C103.278 18.3052 104.217 18.4485 104.884 17.9578L103.107 15.5407ZM111.888 13.8688C112.643 13.529 112.98 12.641 112.64 11.8855C112.301 11.13 111.413 10.793 110.657 11.1328L111.888 13.8688ZM123.293 7.72737C122.469 7.8136 121.871 8.55143 121.957 9.37536C122.043 10.1993 122.781 10.7973 123.605 10.7111L123.293 7.72737ZM131.296 10.5C132.125 10.5 132.796 9.82843 132.796 9C132.796 8.17157 132.125 7.5 131.296 7.5V10.5ZM142.198 7.5C141.369 7.5 140.698 8.17157 140.698 9C140.698 9.82843 141.369 10.5 142.198 10.5V7.5ZM149.465 10.5C150.294 10.5 150.965 9.82843 150.965 9C150.965 8.17157 150.294 7.5 149.465 7.5V10.5ZM160.366 7.5C159.538 7.5 158.866 8.17157 158.866 9C158.866 9.82843 159.538 10.5 160.366 10.5V7.5ZM2 182.5H6.67544V179.5H2V182.5ZM20.7018 182.5H30.0527V179.5H20.7018V182.5ZM44.079 182.5H48.7544V179.5H44.079V182.5ZM48.7544 182.5C50.2301 182.5 51.6881 182.423 53.1246 182.273L52.8123 179.289C51.4794 179.428 50.1256 179.5 48.7544 179.5V182.5ZM65.76 178.867C68.4405 177.662 70.9691 176.18 73.3099 174.459L71.5329 172.042C69.3608 173.639 67.0151 175.013 64.5294 176.131L65.76 178.867ZM82.5043 165.155C84.1971 162.793 85.6483 160.247 86.8218 157.553L84.0713 156.355C82.9831 158.854 81.637 161.216 80.0662 163.407L82.5043 165.155ZM90.0763 144.878C90.2095 143.439 90.2691 141.981 90.2515 140.505L87.2517 140.541C87.2681 141.912 87.2127 143.266 87.0891 144.601L90.0763 144.878ZM90.2515 140.505L90.2081 136.863L87.2083 136.899L87.2517 140.541L90.2515 140.505ZM90.0777 125.938L89.9908 118.654L86.9911 118.69L87.0779 125.973L90.0777 125.938ZM89.8605 107.729L89.7736 100.445L86.7738 100.481L86.8607 107.764L89.8605 107.729ZM89.6433 89.5194L89.5564 82.2357L86.5566 82.2715L86.6435 89.5551L89.6433 89.5194ZM89.4261 71.3102L89.3392 64.0266L86.3394 64.0623L86.4263 71.346L89.4261 71.3102ZM89.2089 53.1011L89.1654 49.4592L86.1656 49.495L86.2091 53.1368L89.2089 53.1011ZM89.1654 49.4592C89.1491 48.0882 89.2045 46.7336 89.3281 45.3991L86.3409 45.1224C86.2077 46.5606 86.148 48.0195 86.1656 49.495L89.1654 49.4592ZM92.3458 33.6452C93.434 31.1463 94.7802 28.7844 96.351 26.5934L93.9128 24.8454C92.2201 27.2065 90.7689 29.7526 89.5953 32.4474L92.3458 33.6452ZM104.884 17.9578C107.056 16.3609 109.402 14.9867 111.888 13.8688L110.657 11.1328C107.977 12.3384 105.448 13.8199 103.107 15.5407L104.884 17.9578ZM123.605 10.7111C124.938 10.5716 126.292 10.5 127.663 10.5V7.5C126.187 7.5 124.729 7.57703 123.293 7.72737L123.605 10.7111ZM127.663 10.5H131.296V7.5H127.663V10.5ZM142.198 10.5H149.465V7.5H142.198V10.5Z" fill="#082A2A"/>
</svg>
